<svg width="2632" height="1234" viewBox="0 0 2632 1234" fill="none" xmlns="http://www.w3.org/2000/svg">
<path d="M68.0317 1164.64L124.15 1055.89L171.984 968.891L184.946 940.927L206.77 948.695L227.035 956.463L250.417 968.891L269.124 975.106L284.712 976.659H301.86L314.33 971.999L328.36 962.677L339.272 953.356L348.625 942.48L376.684 996.856L426.568 1091.63L463.98 1164.64H116.356H68.0317Z" fill="#893EAC" fill-opacity="0.67"/>
<path d="M186.504 942.48L171.984 968.891M171.984 968.891L124.15 1055.89L68.0317 1164.64H116.356H463.98L426.568 1091.63L376.684 996.856L348.625 942.48L339.272 953.356L328.36 962.677L314.33 971.999L301.86 976.659H284.712L269.124 975.106L250.417 968.891L227.035 956.463L206.77 948.695L184.946 940.927L171.984 968.891Z" stroke="black"/>
<path d="M213.004 501.257L219.239 510.579L218.46 515.24L216.122 519.9L213.783 521.454H213.004H205.989L202.092 519.9L194.298 510.579L186.503 499.704L177.15 487.275L170.915 470.185L164.679 451.542L160.003 436.006L158.444 429.792L156.885 417.363V414.256V404.934V389.398V376.97L160.003 366.095L161.562 362.987L166.238 359.88H168.577H170.525L174.033 361.434L175.591 362.987L178.709 366.095L186.503 375.416L197.415 381.631L194.298 372.309L188.062 362.987L178.709 347.451L172.474 335.023L166.238 322.594C163.64 318.451 158.132 309.854 156.885 308.612C155.326 307.058 155.326 300.844 155.326 297.736C155.326 295.251 156.885 289.451 156.885 286.861L160.003 271.325L163.121 255.789L166.238 240.253L169.356 221.61L174.033 206.074L178.709 188.985L184.945 173.449L191.18 162.574L200.533 147.038L209.886 129.948L222.357 112.859L231.71 100.43L245.74 84.8941L262.887 69.3581L275.358 60.0366L292.505 47.6078L311.212 35.1791L334.594 22.7503L350.183 14.9823L370.448 7.21438L390.713 1H403.184L407.86 5.66078L412.537 14.9823L417.214 25.8575L421.89 42.947L425.008 56.9294L426.567 67.8045L428.125 81.7869V92.662V106.644V115.966L420.331 117.52L410.978 112.859L409.419 108.198L407.86 95.7692V81.7869V75.5725L406.302 61.5902L404.743 50.715L403.184 38.2863L400.066 25.8575L396.948 22.7503H392.272L386.036 24.3039L373.566 28.9647L356.418 35.1791L342.389 41.3934L331.477 47.6078L315.888 56.9294L304.976 63.1438L284.711 75.5725L275.358 84.8941L267.564 92.662L259.769 100.43L250.416 111.305L241.063 123.734L236.387 129.948V139.27V157.913L237.946 164.127L242.622 176.556L244.181 184.324L242.622 192.092L236.387 193.646H230.151L225.475 187.431L222.357 181.217V171.895L217.68 162.574L216.122 164.127H214.563L209.886 173.449L206.768 181.217L200.533 193.646L194.298 206.074V215.396V229.378L195.857 240.253L200.533 252.682L203.651 262.004L211.445 272.879L219.239 286.861L225.475 291.522L227.034 300.844L225.475 303.951H217.68L209.886 300.844L203.651 294.629L197.415 286.861L194.298 279.093L189.621 268.218L184.945 258.897H180.268L178.709 268.218L177.15 280.647L175.591 294.629L178.709 307.058L186.503 317.933L197.415 338.13L206.768 359.88L214.563 378.523L219.239 387.845L220.798 395.613L220.019 398.72L217.68 401.827L209.886 404.934L195.857 401.827L186.503 395.613L175.591 389.398V394.059V409.595L177.15 423.578L180.268 440.667L186.503 456.203L195.857 474.846L203.651 490.382L213.004 501.257Z" fill="#171313"/>
<path fill-rule="evenodd" clip-rule="evenodd" d="M175.591 818.19V650.402H166.238L153.768 647.295L145.973 644.188L139.738 639.527L135.061 630.206L133.502 622.438V617V613.116L135.841 607.678L138.179 603.794L144.414 596.026L150.65 592.919L158.444 589.812H250.416L248.857 563.401L247.299 543.204V521.454V454.649L248.857 434.453L251.975 392.506L255.093 372.309L259.769 330.362L261.328 316.38L266.005 294.629L270.681 275.986L275.358 258.897L280.035 237.146L284.711 218.503L289.388 198.306L295.623 178.11L300.3 164.127L306.535 154.806H314.329L319.006 157.913L320.565 167.235L319.006 176.556L314.329 193.646L309.653 209.182L303.417 232.486L297.182 255.789L289.388 283.754L284.711 308.612L278.476 335.023L275.358 366.095L272.24 387.845L269.123 408.042L267.564 420.47V454.649V479.507V504.364V543.204H270.681L281.593 538.544L294.064 533.883L306.535 527.668L315.888 519.9L329.918 510.579L336.153 504.364L342.389 496.596L336.153 495.043L333.036 493.489L323.682 490.382L314.329 487.275L306.535 484.168L301.858 477.953L300.3 471.739L304.976 463.971L315.888 460.864L329.918 456.203L345.506 448.435L356.418 440.667L365.771 431.346L372.007 422.024L376.683 411.149L379.801 397.166L384.478 381.631L389.154 366.095L393.831 338.13L396.948 328.808L398.507 314.826V302.397H396.948L390.713 303.951L379.801 308.612L372.007 310.165L365.771 311.719H354.859H342.389L333.036 310.165L326.8 307.058L323.682 300.844L326.8 291.522L336.153 286.861L347.065 280.647L359.536 272.879L370.448 266.665L379.801 258.897L387.595 251.129L393.831 241.807L398.507 235.593L403.184 226.271L406.302 216.95L407.86 209.182L409.419 198.306V188.985H407.86L398.507 198.306L389.154 206.074L382.919 212.289L372.007 218.503L365.771 221.61L359.536 223.164L354.859 221.61L351.742 218.503V212.289L354.859 206.074L359.536 201.414L368.889 195.199L379.801 187.431L389.154 179.663L396.948 170.342L403.184 164.127L407.86 157.913L410.978 151.699L412.537 148.591L417.214 147.038H421.89L428.125 151.699V201.414L426.567 213.842L425.008 221.61L420.331 234.039L415.655 243.361L406.302 255.789L398.507 266.665L390.713 274.433L382.919 280.647L372.007 286.861L365.771 291.522H372.007L379.801 289.968L389.154 286.861L398.507 280.647L406.302 277.54L410.978 275.986H418.772L420.331 280.647V291.522L418.772 307.058L415.655 328.808L410.978 352.112L406.302 372.309L403.184 389.398L398.507 409.595L393.831 423.578L389.154 434.453L382.919 445.328L372.007 456.203L359.536 463.971L345.506 470.185L336.153 473.293V477.953H348.624H356.418L362.654 479.507L365.771 481.837L367.33 485.721V490.382L365.771 496.596L354.859 510.579L336.153 530.776L326.8 538.544L312.77 546.311L304.976 550.972L289.388 558.74L281.593 561.847L270.681 563.401L272.24 589.812H365.771H379.801L389.154 596.026L393.051 600.687L396.948 606.902L398.507 612.339L399.287 618.64V624.768L398.507 630.206L393.831 637.974L389.154 643.411L384.478 647.295L375.125 650.402H368.11H359.536L361.095 819.744L449.949 989.086L526.333 1136.68L529.451 1144.45L531.01 1152.47V1156.87V1172.41V1177.85V1178.62L530.23 1183.29L528.671 1187.95L526.333 1192.61L521.657 1201.93L516.98 1209.7L507.627 1219.02L499.833 1225.23L487.362 1231.45L478.009 1233H298.741H50.8833L46.2067 1231.45L36.8536 1226.79L27.5005 1220.57L21.2651 1215.91L13.4708 1208.14L7.23541 1198.82L4.1177 1189.5L1 1175.52V1164.64V1158.43L4.1177 1146L8.79426 1133.57L175.591 818.19ZM205.21 650.402H258.211H261.328L262.887 658.17V664.385L264.446 672.153L266.005 678.367L269.123 683.028H272.24H275.358L278.476 681.474L280.035 678.367V673.706V667.492L278.476 662.831L276.917 658.17L275.358 650.402H292.505H326.8L328.359 827.512L331.477 833.726L334.594 841.494L404.743 975.103L468.656 1097.84L498.274 1152.21L499.833 1155.32V1161.53V1167.75V1173.96L498.274 1177.07L495.156 1183.29L490.48 1187.95L485.803 1192.61L479.568 1197.27L473.332 1200.37L462.42 1201.93H286.27H61.7952L52.4421 1197.27L44.6479 1191.05L39.9713 1186.39L36.8536 1178.62L33.7359 1170.86L35.2947 1158.43L38.4125 1149.11L46.2067 1132.02L55.5598 1114.93L161.562 912.96L205.21 830.619V650.402Z" fill="#171313"/>
<path d="M283.152 1034.14L275.358 1037.25L266.005 1045.02L261.328 1055.89V1066.77L262.887 1076.09L267.564 1082.3L275.358 1088.52L286.27 1091.62H298.741L306.535 1088.52L314.329 1080.75L317.447 1076.09L319.006 1069.87V1063.66V1055.89L317.447 1049.68L314.329 1043.46L311.212 1038.8L303.417 1034.14L292.505 1032.59L283.152 1034.14Z" fill="#171313"/>
<path d="M244.181 1003.07L239.504 996.854L230.151 992.193H220.798L213.004 996.854L208.327 1003.07L206.768 1012.39L209.886 1020.16L217.68 1027.93L223.916 1029.48L233.269 1027.93L241.063 1021.71L244.181 1012.39V1003.07Z" fill="#171313"/>
<path d="M273.799 922.281L277.696 921.504H284.711H285.491L287.829 922.281C288.237 922.688 290.459 923.11 291.265 923.623C292.515 924.418 294.107 925.431 295.623 926.942C298.117 929.428 298.741 936.264 298.741 939.371L295.623 947.139L292.505 950.246L291.265 951.193L283.932 954.13L280.693 954.518H277.553L275.071 954.13L272.24 953.353L269.123 951.193L267.564 950.246L266.005 947.916L264.446 945.585L263.667 942.478L263.277 939.987V937.429L263.667 935.487L264.446 931.603L267.564 926.942L273.799 922.281Z" fill="#171313"/>
<path d="M228.592 891.209L234.828 892.763H238.725L242.622 891.209L244.96 888.102L245.74 884.995V881.888L244.96 878.004L242.622 874.12L239.504 871.789L234.828 871.013H230.151L225.475 872.566L223.136 875.673L222.357 878.781V883.441L223.916 888.102L228.592 891.209Z" fill="#171313"/>
<path d="M276.917 844.602L273.799 844.99L270.681 846.155L269.536 846.883L268.391 848.388L267.564 852.37V857.03L267.977 858.195L268.969 859.361L270.316 860.526L273.799 861.691H275.358H276.917L280.424 860.526L282.373 859.361L283.152 858.584L283.932 857.03L284.711 855.477V853.923L283.932 850.427L283.152 848.388L281.983 846.544L280.424 845.603L278.865 844.99L276.917 844.602Z" fill="#171313"/>
<path d="M213.004 501.257L219.239 510.579L218.46 515.24L216.122 519.9L213.783 521.454H213.004H205.989L202.092 519.9L194.298 510.579L186.503 499.704L177.15 487.275L170.915 470.185L164.679 451.542L160.003 436.006L158.444 429.792L156.885 417.363V414.256V404.934V389.398V376.97L160.003 366.095L161.562 362.987L166.238 359.88H168.577H170.525L174.033 361.434L175.591 362.987L178.709 366.095L186.503 375.416L197.415 381.631L194.298 372.309L188.062 362.987L178.709 347.451L172.474 335.023L166.238 322.594C163.64 318.451 158.132 309.854 156.885 308.612C155.326 307.058 155.326 300.844 155.326 297.736C155.326 295.251 156.885 289.451 156.885 286.861L160.003 271.325L163.121 255.789L166.238 240.253L169.356 221.61L174.033 206.074L178.709 188.985L184.945 173.449L191.18 162.574L200.533 147.038L209.886 129.948L222.357 112.859L231.71 100.43L245.74 84.8941L262.887 69.3581L275.358 60.0366L292.505 47.6078L311.212 35.1791L334.594 22.7503L350.183 14.9823L370.448 7.21438L390.713 1H403.184L407.86 5.66078L412.537 14.9823L417.214 25.8575L421.89 42.947L425.008 56.9294L426.567 67.8045L428.125 81.7869V92.662V106.644V115.966L420.331 117.52L410.978 112.859L409.419 108.198L407.86 95.7692V81.7869V75.5725L406.302 61.5902L404.743 50.715L403.184 38.2863L400.066 25.8575L396.948 22.7503H392.272L386.036 24.3039L373.566 28.9647L356.418 35.1791L342.389 41.3934L331.477 47.6078L315.888 56.9294L304.976 63.1438L284.711 75.5725L275.358 84.8941L267.564 92.662L259.769 100.43L250.416 111.305L241.063 123.734L236.387 129.948V139.27V157.913L237.946 164.127L242.622 176.556L244.181 184.324L242.622 192.092L236.387 193.646H230.151L225.475 187.431L222.357 181.217V171.895L217.68 162.574L216.122 164.127H214.563L209.886 173.449L206.768 181.217L200.533 193.646L194.298 206.074V215.396V229.378L195.857 240.253L200.533 252.682L203.651 262.004L211.445 272.879L219.239 286.861L225.475 291.522L227.034 300.844L225.475 303.951H217.68L209.886 300.844L203.651 294.629L197.415 286.861L194.298 279.093L189.621 268.218L184.945 258.897H180.268L178.709 268.218L177.15 280.647L175.591 294.629L178.709 307.058L186.503 317.933L197.415 338.13L206.768 359.88L214.563 378.523L219.239 387.845L220.798 395.613L220.019 398.72L217.68 401.827L209.886 404.934L195.857 401.827L186.503 395.613L175.591 389.398V394.059V409.595L177.15 423.578L180.268 440.667L186.503 456.203L195.857 474.846L203.651 490.382L213.004 501.257Z" stroke="black"/>
<path fill-rule="evenodd" clip-rule="evenodd" d="M175.591 818.19V650.402H166.238L153.768 647.295L145.973 644.188L139.738 639.527L135.061 630.206L133.502 622.438V617V613.116L135.841 607.678L138.179 603.794L144.414 596.026L150.65 592.919L158.444 589.812H250.416L248.857 563.401L247.299 543.204V521.454V454.649L248.857 434.453L251.975 392.506L255.093 372.309L259.769 330.362L261.328 316.38L266.005 294.629L270.681 275.986L275.358 258.897L280.035 237.146L284.711 218.503L289.388 198.306L295.623 178.11L300.3 164.127L306.535 154.806H314.329L319.006 157.913L320.565 167.235L319.006 176.556L314.329 193.646L309.653 209.182L303.417 232.486L297.182 255.789L289.388 283.754L284.711 308.612L278.476 335.023L275.358 366.095L272.24 387.845L269.123 408.042L267.564 420.47V454.649V479.507V504.364V543.204H270.681L281.593 538.544L294.064 533.883L306.535 527.668L315.888 519.9L329.918 510.579L336.153 504.364L342.389 496.596L336.153 495.043L333.036 493.489L323.682 490.382L314.329 487.275L306.535 484.168L301.858 477.953L300.3 471.739L304.976 463.971L315.888 460.864L329.918 456.203L345.506 448.435L356.418 440.667L365.771 431.346L372.007 422.024L376.683 411.149L379.801 397.166L384.478 381.631L389.154 366.095L393.831 338.13L396.948 328.808L398.507 314.826V302.397H396.948L390.713 303.951L379.801 308.612L372.007 310.165L365.771 311.719H354.859H342.389L333.036 310.165L326.8 307.058L323.682 300.844L326.8 291.522L336.153 286.861L347.065 280.647L359.536 272.879L370.448 266.665L379.801 258.897L387.595 251.129L393.831 241.807L398.507 235.593L403.184 226.271L406.302 216.95L407.86 209.182L409.419 198.306V188.985H407.86L398.507 198.306L389.154 206.074L382.919 212.289L372.007 218.503L365.771 221.61L359.536 223.164L354.859 221.61L351.742 218.503V212.289L354.859 206.074L359.536 201.414L368.889 195.199L379.801 187.431L389.154 179.663L396.948 170.342L403.184 164.127L407.86 157.913L410.978 151.699L412.537 148.591L417.214 147.038H421.89L428.125 151.699V201.414L426.567 213.842L425.008 221.61L420.331 234.039L415.655 243.361L406.302 255.789L398.507 266.665L390.713 274.433L382.919 280.647L372.007 286.861L365.771 291.522H372.007L379.801 289.968L389.154 286.861L398.507 280.647L406.302 277.54L410.978 275.986H418.772L420.331 280.647V291.522L418.772 307.058L415.655 328.808L410.978 352.112L406.302 372.309L403.184 389.398L398.507 409.595L393.831 423.578L389.154 434.453L382.919 445.328L372.007 456.203L359.536 463.971L345.506 470.185L336.153 473.293V477.953H348.624H356.418L362.654 479.507L365.771 481.837L367.33 485.721V490.382L365.771 496.596L354.859 510.579L336.153 530.776L326.8 538.544L312.77 546.311L304.976 550.972L289.388 558.74L281.593 561.847L270.681 563.401L272.24 589.812H365.771H379.801L389.154 596.026L393.051 600.687L396.948 606.902L398.507 612.339L399.287 618.64V624.768L398.507 630.206L393.831 637.974L389.154 643.411L384.478 647.295L375.125 650.402H368.11H359.536L361.095 819.744L449.949 989.086L526.333 1136.68L529.451 1144.45L531.01 1152.47V1156.87V1172.41V1177.85V1178.62L530.23 1183.29L528.671 1187.95L526.333 1192.61L521.657 1201.93L516.98 1209.7L507.627 1219.02L499.833 1225.23L487.362 1231.45L478.009 1233H298.741H50.8833L46.2067 1231.45L36.8536 1226.79L27.5005 1220.57L21.2651 1215.91L13.4708 1208.14L7.23541 1198.82L4.1177 1189.5L1 1175.52V1164.64V1158.43L4.1177 1146L8.79426 1133.57L175.591 818.19ZM205.21 650.402H258.211H261.328L262.887 658.17V664.385L264.446 672.153L266.005 678.367L269.123 683.028H272.24H275.358L278.476 681.474L280.035 678.367V673.706V667.492L278.476 662.831L276.917 658.17L275.358 650.402H292.505H326.8L328.359 827.512L331.477 833.726L334.594 841.494L404.743 975.103L468.656 1097.84L498.274 1152.21L499.833 1155.32V1161.53V1167.75V1173.96L498.274 1177.07L495.156 1183.29L490.48 1187.95L485.803 1192.61L479.568 1197.27L473.332 1200.37L462.42 1201.93H286.27H61.7952L52.4421 1197.27L44.6479 1191.05L39.9713 1186.39L36.8536 1178.62L33.7359 1170.86L35.2947 1158.43L38.4125 1149.11L46.2067 1132.02L55.5598 1114.93L161.562 912.96L205.21 830.619V650.402Z" stroke="black"/>
<path d="M283.152 1034.14L275.358 1037.25L266.005 1045.02L261.328 1055.89V1066.77L262.887 1076.09L267.564 1082.3L275.358 1088.52L286.27 1091.62H298.741L306.535 1088.52L314.329 1080.75L317.447 1076.09L319.006 1069.87V1063.66V1055.89L317.447 1049.68L314.329 1043.46L311.212 1038.8L303.417 1034.14L292.505 1032.59L283.152 1034.14Z" stroke="black"/>
<path d="M244.181 1003.07L239.504 996.854L230.151 992.193H220.798L213.004 996.854L208.327 1003.07L206.768 1012.39L209.886 1020.16L217.68 1027.93L223.916 1029.48L233.269 1027.93L241.063 1021.71L244.181 1012.39V1003.07Z" stroke="black"/>
<path d="M273.799 922.281L277.696 921.504H284.711H285.491L287.829 922.281C288.237 922.688 290.459 923.11 291.265 923.623C292.515 924.418 294.107 925.431 295.623 926.942C298.117 929.428 298.741 936.264 298.741 939.371L295.623 947.139L292.505 950.246L291.265 951.193L283.932 954.13L280.693 954.518H277.553L275.071 954.13L272.24 953.353L269.123 951.193L267.564 950.246L266.005 947.916L264.446 945.585L263.667 942.478L263.277 939.987V937.429L263.667 935.487L264.446 931.603L267.564 926.942L273.799 922.281Z" stroke="black"/>
<path d="M228.592 891.209L234.828 892.763H238.725L242.622 891.209L244.96 888.102L245.74 884.995V881.888L244.96 878.004L242.622 874.12L239.504 871.789L234.828 871.013H230.151L225.475 872.566L223.136 875.673L222.357 878.781V883.441L223.916 888.102L228.592 891.209Z" stroke="black"/>
<path d="M276.917 844.602L273.799 844.99L270.681 846.155L269.536 846.883L268.391 848.388L267.564 852.37V857.03L267.977 858.195L268.969 859.361L270.316 860.526L273.799 861.691H275.358H276.917L280.424 860.526L282.373 859.361L283.152 858.584L283.932 857.03L284.711 855.477V853.923L283.932 850.427L283.152 848.388L281.983 846.544L280.424 845.603L278.865 844.99L276.917 844.602Z" stroke="black"/>
<path d="M790.4 196.4C790.4 246.176 763.2 279.36 722.4 279.36C705.264 279.36 688.944 275.824 681.056 273.648C678.608 273.104 677.792 271.472 677.792 269.568C677.792 267.936 678.064 266.304 678.608 264.672L683.232 251.344C691.936 254.88 706.08 260.32 716.96 260.32C744.16 260.32 763.2 239.648 766.736 207.008H714.784C709.344 207.008 700.64 207.552 699.824 207.824C699.552 207.008 698.464 201.84 698.464 196.4C698.464 190.96 699.552 185.792 699.824 184.976C700.64 185.248 709.344 185.792 714.784 185.792H766.736C763.2 153.424 744.16 132.48 716.96 132.48C706.08 132.48 691.936 137.92 683.232 141.456L678.608 128.128C678.064 126.496 677.792 124.864 677.792 123.232C677.792 121.328 678.608 119.696 681.056 119.152C688.944 116.976 705.264 113.44 722.4 113.44C763.2 113.44 790.4 146.624 790.4 196.4ZM806.848 269.296C806.848 263.856 807.663 259.776 807.936 258.96C807.936 259.232 808.48 259.232 809.024 259.232C812.832 259.232 822.08 256.784 822.624 247.264L823.984 221.424C825.616 192.864 844.112 169.2 869.408 169.2H888.176C894.16 169.2 902.32 169.2 914.016 170.016C913.744 170.832 913.2 179.536 913.2 184.976V262.224C913.2 267.664 913.744 276.096 914.016 276.912C913.2 277.184 907.488 278.544 902.048 278.544C896.608 278.544 890.896 277.184 890.08 276.912C890.352 276.096 890.896 267.664 890.896 262.224V189.6H872.128C857.44 189.6 846.56 205.376 845.472 224.96L844.384 251.344C843.568 267.664 830.24 279.36 809.024 279.36H807.936C807.663 278.544 806.848 274.736 806.848 269.296ZM937.535 223.6C937.807 189.056 956.575 167.84 991.663 167.84C1026.75 167.84 1045.52 189.056 1045.79 223.6V223.872L1036 231.76L959.839 231.216C963.103 248.352 978.063 260.864 994.383 260.864C1004.18 260.864 1016.14 256.24 1024.85 252.432C1025.94 251.888 1027.02 251.888 1027.84 251.888C1030.29 251.888 1031.92 253.792 1033.28 258.416L1037.09 270.928C1033.01 272.56 1014.24 279.36 989.759 279.36C958.207 279.36 937.535 255.152 937.535 223.6ZM960.927 211.36L951.951 216.256L1024.3 214.624C1022.67 197.76 1009.34 185.52 991.935 185.52C977.247 185.52 964.191 195.856 960.927 211.36ZM1070.8 262.224L1070.53 184.976C1070.53 179.808 1069.99 171.104 1069.72 170.288C1070.53 170.016 1075.97 168.656 1081.41 168.656C1086.85 168.656 1092.29 170.016 1093.11 170.288C1092.84 171.104 1092.29 179.536 1092.29 184.976V214.08H1109.7L1136.9 173.552C1139.89 169.2 1147.24 167.84 1154.58 167.84C1159.75 167.84 1165.73 168.112 1167.64 171.376C1166.82 172.192 1160.56 177.904 1157.3 182.256L1128.74 223.328L1164.37 265.488C1167.91 269.568 1172.8 275.28 1173.62 276.096C1171.72 279.36 1166 279.36 1160.84 279.36C1153.49 279.36 1146.15 278 1142.88 274.192L1108.61 231.216H1086.04L1092.56 236.112V262.224C1092.56 267.664 1093.11 276.368 1093.38 277.184C1092.56 277.456 1087.12 278.544 1081.68 278.544C1076.24 278.544 1070.8 277.456 1069.99 277.184C1070.26 276.368 1070.8 267.664 1070.8 262.224ZM1228.55 262.224V189.6H1201.9C1196.46 189.6 1187.75 190.144 1186.94 190.416C1186.67 189.6 1185.58 185.792 1185.58 180.352C1185.58 169.2 1187.48 169.2 1201.9 169.2H1276.97C1291.39 169.2 1293.29 169.2 1293.29 180.352C1293.29 185.792 1292.2 189.6 1291.93 190.416C1291.11 190.144 1282.41 189.6 1276.97 189.6H1242.7C1245.42 190.96 1247.59 192.048 1250.31 193.136V262.224C1250.31 267.664 1250.86 276.368 1251.13 277.184C1250.31 277.456 1244.87 278.544 1239.43 278.544C1233.99 278.544 1228.55 277.456 1227.74 277.184C1228.01 276.368 1228.55 267.664 1228.55 262.224ZM1315.71 184.976C1315.71 179.808 1315.17 173.008 1314.89 170.288H1316.53C1333.12 170.288 1351.89 167.84 1364.67 167.84C1395.95 167.84 1413.63 192.32 1413.63 223.6C1413.63 255.152 1390.51 279.36 1359.23 279.36C1351.34 279.36 1344 278 1337.47 275.008V316.08C1337.47 321.52 1338.01 330.224 1338.29 331.04C1337.47 331.312 1332.03 332.4 1326.59 332.4C1321.15 332.4 1315.71 331.312 1314.89 331.04C1315.17 330.224 1315.71 321.52 1315.71 316.08V184.976ZM1337.47 245.36L1332.85 246.176C1338.83 254.88 1348.08 260.32 1359.23 260.32C1377.73 260.32 1390.51 244.816 1390.51 223.6C1390.51 202.656 1377.73 186.88 1359.23 186.88C1351.61 186.88 1344.27 187.968 1337.47 189.872V245.36ZM1453.12 223.6C1453.12 245.632 1465.64 260.32 1484.4 260.32C1503.17 260.32 1515.68 245.632 1515.68 223.6C1515.68 201.568 1503.17 186.88 1484.4 186.88C1465.64 186.88 1453.12 201.568 1453.12 223.6ZM1430 223.6C1430 190.144 1451.76 167.84 1484.4 167.84C1517.04 167.84 1538.8 190.144 1538.8 223.6C1538.8 257.056 1517.04 279.36 1484.4 279.36C1451.76 279.36 1430 257.056 1430 223.6ZM1563.27 262.224V184.976C1563.27 179.536 1562.73 170.832 1562.46 170.016C1563.27 169.744 1568.71 168.656 1574.15 168.656C1579.59 168.656 1585.03 169.744 1585.85 170.016C1585.58 170.832 1585.03 179.536 1585.03 184.976V206.192L1573.34 210.816V211.632L1590.2 210H1639.43V184.976C1639.43 179.808 1638.89 171.104 1638.62 170.288C1639.43 170.016 1644.87 168.656 1650.31 168.656C1655.75 168.656 1661.19 170.016 1662.01 170.288C1661.74 171.104 1661.19 179.536 1661.19 184.976V262.224C1661.19 267.664 1661.74 276.368 1662.01 277.184C1661.19 277.456 1655.75 278.544 1650.31 278.544C1644.87 278.544 1639.43 277.456 1638.62 277.184C1638.89 276.368 1639.43 267.664 1639.43 262.224V230.4H1585.03V262.224C1585.03 267.664 1585.58 276.096 1585.85 276.912C1585.03 277.184 1579.59 278.544 1574.15 278.544C1568.71 278.544 1563.27 277.184 1562.46 276.912C1562.73 276.096 1563.27 267.664 1563.27 262.224ZM1693.96 262.224V184.976C1693.96 179.536 1693.42 170.832 1693.14 170.016C1693.96 169.744 1699.4 168.656 1704.84 168.656C1710.28 168.656 1715.72 169.744 1716.54 170.016C1716.26 170.832 1715.72 179.536 1715.72 184.976V206.192L1704.02 210.816V211.632L1720.89 210H1770.12V184.976C1770.12 179.808 1769.58 171.104 1769.3 170.288C1770.12 170.016 1775.56 168.656 1781 168.656C1786.44 168.656 1791.88 170.016 1792.7 170.288C1792.42 171.104 1791.88 179.536 1791.88 184.976V262.224C1791.88 267.664 1792.42 276.368 1792.7 277.184C1791.88 277.456 1786.44 278.544 1781 278.544C1775.56 278.544 1770.12 277.456 1769.3 277.184C1769.58 276.368 1770.12 267.664 1770.12 262.224V230.4H1715.72V262.224C1715.72 267.664 1716.26 276.096 1716.54 276.912C1715.72 277.184 1710.28 278.544 1704.84 278.544C1699.4 278.544 1693.96 277.184 1693.14 276.912C1693.42 276.096 1693.96 267.664 1693.96 262.224ZM1816.49 248.08C1816.49 226.048 1829.82 214.896 1854.57 214.896L1895.37 215.712V213.264C1895.37 192.592 1880.14 186.88 1861.64 186.88C1850.76 186.88 1839.06 191.776 1830.63 195.312L1824.38 174.368C1828.46 172.736 1847.22 167.84 1866.26 167.84C1897.54 167.84 1916.86 181.44 1917.13 212.72V262.224C1917.13 267.664 1917.4 274.464 1917.94 276.912H1916.04C1898.36 276.912 1867.08 279.36 1854.57 279.36C1829.82 279.36 1816.49 269.296 1816.49 248.08ZM1839.61 248.08C1839.61 256.24 1846.68 260.32 1860.01 260.32C1867.9 260.32 1883.94 259.232 1895.37 257.056V236.384L1905.98 232.032C1890.47 232.032 1874.97 232.032 1859.46 231.76C1846.14 231.76 1839.61 239.376 1839.61 248.08ZM1943.36 203.744C1943.36 180.896 1959.68 168.384 1990.69 168.384C2003.47 168.384 2017.89 170.832 2035.02 170.832C2034.48 173.28 2034.21 180.352 2034.21 185.52V262.224C2034.21 267.664 2034.75 276.368 2035.02 277.184C2034.21 277.456 2028.77 278.544 2023.33 278.544C2017.89 278.544 2012.45 277.456 2011.63 277.184C2011.9 276.368 2012.45 267.664 2012.45 262.224V239.92H1999.66C1989.33 240.192 1981.17 242.096 1974.09 254.88L1963.49 273.376C1960.77 277.728 1952.06 279.36 1944.72 279.36C1939.55 279.36 1933.57 279.36 1931.66 276.096C1932.48 275.28 1938.46 269.84 1941.45 265.488L1955.05 246.448C1961.31 237.2 1973.82 233.664 1978.72 233.664V232.848C1957.23 231.216 1943.36 220.064 1943.36 203.744ZM1965.93 203.744C1965.93 215.44 1976.27 221.424 1996.12 221.424H2021.42V221.152L2012.45 217.344V189.056C2007.55 188.24 2002.38 187.424 1996.12 187.424C1976.27 187.424 1965.93 193.136 1965.93 203.744ZM676.16 566.296C676.16 560.856 676.976 556.776 677.248 555.96C678.88 555.96 691.392 555.144 691.936 544.264L695.744 468.104C697.376 437.096 718.592 411.8 746.88 411.8H765.376C771.36 411.8 782.24 411.8 793.936 412.616C793.664 413.432 793.12 422.136 793.12 427.576V559.224C793.12 564.664 793.664 573.096 793.936 573.912C793.12 574.184 787.408 575.544 781.968 575.544C776.528 575.544 770.816 574.184 770 573.912C770.272 573.096 770.816 564.664 770.816 559.224V432.2H749.6C731.648 432.2 718.32 449.88 717.232 471.64L713.696 548.344C712.88 564.664 699.552 576.36 678.336 576.36H677.248C676.976 575.544 676.16 571.736 676.16 566.296ZM817.473 545.08C817.473 523.048 830.801 511.896 855.553 511.896L896.353 512.712V510.264C896.353 489.592 881.12 483.88 862.625 483.88C851.745 483.88 840.049 488.776 831.617 492.312L825.361 471.368C829.441 469.736 848.209 464.84 867.249 464.84C898.529 464.84 917.841 478.44 918.113 509.72V559.224C918.113 564.664 918.385 571.464 918.929 573.912H917.025C899.345 573.912 868.065 576.36 855.553 576.36C830.801 576.36 817.473 566.296 817.473 545.08ZM840.593 545.08C840.593 553.24 847.665 557.32 860.993 557.32C868.881 557.32 884.929 556.232 896.353 554.056V533.384L906.961 529.032C891.457 529.032 875.953 529.032 860.449 528.76C847.121 528.76 840.593 536.376 840.593 545.08ZM937.269 496.12C937.269 448.792 960.117 417.24 994.389 417.24C1008.81 417.24 1023.77 413.976 1034.65 409.352L1040.9 430.296C1036.82 431.928 1021.59 436.28 999.829 436.28C982.421 436.28 970.453 445.8 964.469 464.024L956.581 471.912C968.821 468.376 982.693 464.84 997.653 464.84C1027.3 464.84 1047.16 487.144 1047.16 520.6C1047.16 554.056 1025.4 576.36 993.029 576.36C956.581 576.36 937.269 548.344 937.269 496.12ZM960.389 490.408C960.389 492.312 960.389 494.216 960.389 496.12C960.389 536.104 971.813 557.32 993.029 557.32C1011.53 557.32 1024.04 542.632 1024.04 520.6C1024.04 498.568 1011.53 483.88 993.029 483.88C983.237 483.88 969.365 487.144 960.389 490.408ZM1088.16 520.6C1088.16 542.632 1100.67 557.32 1119.44 557.32C1138.2 557.32 1150.72 542.632 1150.72 520.6C1150.72 498.568 1138.2 483.88 1119.44 483.88C1100.67 483.88 1088.16 498.568 1088.16 520.6ZM1065.04 520.6C1065.04 487.144 1086.8 464.84 1119.44 464.84C1152.08 464.84 1173.84 487.144 1173.84 520.6C1173.84 554.056 1152.08 576.36 1119.44 576.36C1086.8 576.36 1065.04 554.056 1065.04 520.6ZM1198.3 481.976C1198.3 476.808 1197.76 470.008 1197.49 467.288H1199.12C1215.71 467.288 1234.48 464.84 1247.26 464.84C1278.54 464.84 1296.22 489.32 1296.22 520.6C1296.22 552.152 1273.1 576.36 1241.82 576.36C1233.94 576.36 1226.59 575 1220.06 572.008V613.08C1220.06 618.52 1220.61 627.224 1220.88 628.04C1220.06 628.312 1214.62 629.4 1209.18 629.4C1203.74 629.4 1198.3 628.312 1197.49 628.04C1197.76 627.224 1198.3 618.52 1198.3 613.08V481.976ZM1220.06 542.36L1215.44 543.176C1221.42 551.88 1230.67 557.32 1241.82 557.32C1260.32 557.32 1273.1 541.816 1273.1 520.6C1273.1 499.656 1260.32 483.88 1241.82 483.88C1234.21 483.88 1226.86 484.968 1220.06 486.872V542.36ZM1312.6 545.08C1312.6 523.048 1325.93 511.896 1350.68 511.896L1391.48 512.712V510.264C1391.48 489.592 1376.25 483.88 1357.75 483.88C1346.87 483.88 1335.17 488.776 1326.74 492.312L1320.49 471.368C1324.57 469.736 1343.33 464.84 1362.37 464.84C1393.65 464.84 1412.97 478.44 1413.24 509.72V559.224C1413.24 564.664 1413.51 571.464 1414.05 573.912H1412.15C1394.47 573.912 1363.19 576.36 1350.68 576.36C1325.93 576.36 1312.6 566.296 1312.6 545.08ZM1335.72 545.08C1335.72 553.24 1342.79 557.32 1356.12 557.32C1364.01 557.32 1380.05 556.232 1391.48 554.056V533.384L1402.09 529.032C1386.58 529.032 1371.08 529.032 1355.57 528.76C1342.25 528.76 1335.72 536.376 1335.72 545.08ZM1471.87 559.224V486.6H1445.21C1439.77 486.6 1431.07 487.144 1430.25 487.416C1429.98 486.6 1428.89 482.792 1428.89 477.352C1428.89 466.2 1430.79 466.2 1445.21 466.2H1520.28C1534.7 466.2 1536.6 466.2 1536.6 477.352C1536.6 482.792 1535.51 486.6 1535.24 487.416C1534.43 487.144 1525.72 486.6 1520.28 486.6H1486.01C1488.73 487.96 1490.91 489.048 1493.63 490.136V559.224C1493.63 564.664 1494.17 573.368 1494.44 574.184C1493.63 574.456 1488.19 575.544 1482.75 575.544C1477.31 575.544 1471.87 574.456 1471.05 574.184C1471.32 573.368 1471.87 564.664 1471.87 559.224ZM1573.98 520.6C1573.98 542.632 1586.5 557.32 1605.26 557.32C1624.03 557.32 1636.54 542.632 1636.54 520.6C1636.54 498.568 1624.03 483.88 1605.26 483.88C1586.5 483.88 1573.98 498.568 1573.98 520.6ZM1550.86 520.6C1550.86 487.144 1572.62 464.84 1605.26 464.84C1637.9 464.84 1659.66 487.144 1659.66 520.6C1659.66 554.056 1637.9 576.36 1605.26 576.36C1572.62 576.36 1550.86 554.056 1550.86 520.6ZM1684.13 481.976C1684.13 476.808 1683.59 470.008 1683.32 467.288H1684.95C1701.54 467.288 1720.31 464.84 1733.09 464.84C1764.37 464.84 1782.05 489.32 1782.05 520.6C1782.05 552.152 1758.93 576.36 1727.65 576.36C1719.76 576.36 1712.42 575 1705.89 572.008V613.08C1705.89 618.52 1706.44 627.224 1706.71 628.04C1705.89 628.312 1700.45 629.4 1695.01 629.4C1689.57 629.4 1684.13 628.312 1683.32 628.04C1683.59 627.224 1684.13 618.52 1684.13 613.08V481.976ZM1705.89 542.36L1701.27 543.176C1707.25 551.88 1716.5 557.32 1727.65 557.32C1746.15 557.32 1758.93 541.816 1758.93 520.6C1758.93 499.656 1746.15 483.88 1727.65 483.88C1720.04 483.88 1712.69 484.968 1705.89 486.872V542.36ZM1806.59 559.224V481.976C1806.59 476.536 1805.77 468.104 1805.5 467.288C1806.31 467.016 1811.75 465.656 1817.19 465.656C1822.63 465.656 1828.07 467.016 1828.89 467.288C1828.62 468.104 1827.8 476.808 1827.8 481.976V535.016L1893.63 465.656C1899.07 465.656 1904.51 466.744 1905.32 467.016C1905.05 467.832 1904.51 476.536 1904.51 481.976V559.224C1904.51 564.664 1905.05 573.096 1905.32 573.912C1904.51 574.184 1899.34 575.544 1893.9 575.544C1888.46 575.544 1883.29 574.184 1882.47 573.912C1882.75 573.096 1883.29 564.664 1883.29 559.224V519.24L1887.64 503.736L1886.28 502.648L1817.19 576.088V575.544C1811.75 575.544 1806.31 574.456 1805.77 574.184C1806.04 573.368 1806.59 564.664 1806.59 559.224ZM1936.19 500.744C1936.19 477.896 1952.51 465.384 1983.51 465.384C1996.3 465.384 2010.71 467.832 2027.85 467.832C2027.31 470.28 2027.03 477.352 2027.03 482.52V559.224C2027.03 564.664 2027.58 573.368 2027.85 574.184C2027.03 574.456 2021.59 575.544 2016.15 575.544C2010.71 575.544 2005.27 574.456 2004.46 574.184C2004.73 573.368 2005.27 564.664 2005.27 559.224V536.92H1992.49C1982.15 537.192 1973.99 539.096 1966.92 551.88L1956.31 570.376C1953.59 574.728 1944.89 576.36 1937.55 576.36C1932.38 576.36 1926.39 576.36 1924.49 573.096C1925.31 572.28 1931.29 566.84 1934.28 562.488L1947.88 543.448C1954.14 534.2 1966.65 530.664 1971.55 530.664V529.848C1950.06 528.216 1936.19 517.064 1936.19 500.744ZM1958.76 500.744C1958.76 512.44 1969.1 518.424 1988.95 518.424H2014.25V518.152L2005.27 514.344V486.056C2000.38 485.24 1995.21 484.424 1988.95 484.424C1969.1 484.424 1958.76 490.136 1958.76 500.744ZM678.336 856.224L700.912 763.2C708.256 732.736 716.688 707.44 741.44 707.44C765.92 707.44 774.352 732.736 781.968 763.2L804.544 856.224C805.632 861.664 807.808 871.184 807.808 871.184C806.992 871.456 801.552 872.544 796.112 872.544C790.672 872.544 785.232 871.456 784.416 871.184V870.096C784.416 867.376 783.872 860.848 782.784 856.224L775.44 827.12H707.168L700.096 856.224C698.736 860.848 698.464 867.376 698.464 870.096V871.184C697.648 871.456 692.208 872.544 686.768 872.544C681.328 872.544 675.888 871.456 675.072 871.184C675.072 871.184 676.976 861.664 678.336 856.224ZM713.424 802.912L701.456 807.536V808.352L719.136 806.72H770.272L761.296 770.272C753.68 740.624 752.32 727.84 741.44 727.84C730.288 727.84 728.928 740.624 721.584 770.272L713.424 802.912ZM831.211 856.224L830.939 778.976C830.939 773.808 830.395 765.104 830.123 764.288C830.939 764.016 836.379 762.656 841.819 762.656C847.259 762.656 852.699 764.016 853.515 764.288C853.243 765.104 852.699 773.536 852.699 778.976V808.08H870.107L897.307 767.552C900.299 763.2 907.643 761.84 914.987 761.84C920.155 761.84 926.139 762.112 928.043 765.376C927.227 766.192 920.971 771.904 917.707 776.256L889.147 817.328L924.779 859.488C928.315 863.568 933.211 869.28 934.027 870.096C932.123 873.36 926.411 873.36 921.243 873.36C913.899 873.36 906.555 872 903.291 868.192L869.019 825.216H846.443L852.971 830.112V856.224C852.971 861.664 853.515 870.368 853.787 871.184C852.971 871.456 847.531 872.544 842.091 872.544C836.651 872.544 831.211 871.456 830.395 871.184C830.667 870.368 831.211 861.664 831.211 856.224ZM948.16 842.08C948.16 820.048 961.488 808.896 986.24 808.896L1027.04 809.712V807.264C1027.04 786.592 1011.81 780.88 993.312 780.88C982.432 780.88 970.736 785.776 962.304 789.312L956.048 768.368C960.128 766.736 978.896 761.84 997.936 761.84C1029.22 761.84 1048.53 775.44 1048.8 806.72V856.224C1048.8 861.664 1049.07 868.464 1049.62 870.912H1047.71C1030.03 870.912 998.752 873.36 986.24 873.36C961.488 873.36 948.16 863.296 948.16 842.08ZM971.28 842.08C971.28 850.24 978.352 854.32 991.68 854.32C999.568 854.32 1015.62 853.232 1027.04 851.056V830.384L1037.65 826.032C1022.14 826.032 1006.64 826.032 991.136 825.76C977.808 825.76 971.28 833.376 971.28 842.08ZM1067.96 861.936C1067.96 856.496 1068.77 852.416 1069.04 851.6C1069.32 851.872 1070.13 851.872 1070.95 851.872C1075.03 851.872 1083.19 849.968 1083.73 841.264L1085.09 815.424C1086.72 786.864 1105.22 763.2 1130.52 763.2H1146.56C1152.55 763.2 1160.71 763.2 1172.4 764.016C1172.13 764.832 1171.59 773.536 1171.59 778.976V851.6C1177.03 851.6 1185.73 851.056 1186.55 850.784C1186.82 851.6 1187.91 855.952 1187.91 861.392C1187.91 866.832 1186.82 872 1186.55 872.816C1185.73 872.544 1177.03 872 1171.59 872H1070.68H1070.4H1069.04C1068.77 871.184 1067.96 867.376 1067.96 861.936ZM1104.13 845.344L1097.06 851.6H1149.28V783.056H1133.24C1118.55 783.056 1106.31 799.376 1105.22 818.96L1104.13 845.344ZM1201.3 817.6C1201.57 783.056 1220.34 761.84 1255.43 761.84C1290.52 761.84 1309.28 783.056 1309.56 817.6V817.872L1299.76 825.76L1223.6 825.216C1226.87 842.352 1241.83 854.864 1258.15 854.864C1267.94 854.864 1279.91 850.24 1288.61 846.432C1289.7 845.888 1290.79 845.888 1291.6 845.888C1294.05 845.888 1295.68 847.792 1297.04 852.416L1300.85 864.928C1296.77 866.56 1278 873.36 1253.52 873.36C1221.97 873.36 1201.3 849.152 1201.3 817.6ZM1224.69 805.36L1215.72 810.256L1288.07 808.624C1286.44 791.76 1273.11 779.52 1255.7 779.52C1241.01 779.52 1227.96 789.856 1224.69 805.36ZM1334.57 856.224V783.6C1334.57 778.16 1333.75 763.2 1333.75 763.2H1363.13C1384.07 763.2 1402.03 776.256 1410.73 795.024C1419.16 776.256 1437.11 763.2 1458.33 763.2H1487.71C1487.71 763.2 1486.89 778.16 1486.89 783.6V856.224C1486.89 861.664 1487.43 870.368 1487.71 871.184C1486.89 871.456 1481.45 872.544 1476.01 872.544C1470.57 872.544 1465.13 871.456 1464.31 871.184C1464.59 870.368 1465.13 861.664 1465.13 856.224V783.6H1461.05C1440.11 783.6 1421.61 805.088 1421.61 829.296V856.224C1421.61 861.664 1422.15 870.368 1422.43 871.184C1421.61 871.456 1416.17 872.544 1410.73 872.544C1405.29 872.544 1399.85 871.456 1399.03 871.184C1399.31 870.368 1399.85 861.664 1399.85 856.224V829.296C1399.85 805.088 1381.08 783.6 1360.41 783.6H1346.81L1356.33 788.224V856.224C1356.33 861.664 1356.87 870.368 1357.15 871.184C1356.33 871.456 1350.89 872.544 1345.45 872.544C1340.01 872.544 1334.57 871.456 1333.75 871.184C1334.03 870.368 1334.57 861.664 1334.57 856.224ZM1519.45 856.224V778.976C1519.45 773.536 1518.63 765.104 1518.36 764.288C1519.17 764.016 1524.61 762.656 1530.05 762.656C1535.49 762.656 1540.93 764.016 1541.75 764.288C1541.48 765.104 1540.66 773.808 1540.66 778.976V832.016L1606.49 762.656C1611.93 762.656 1617.37 763.744 1618.18 764.016C1617.91 764.832 1617.37 773.536 1617.37 778.976V856.224C1617.37 861.664 1617.91 870.096 1618.18 870.912C1617.37 871.184 1612.2 872.544 1606.76 872.544C1601.32 872.544 1596.15 871.184 1595.33 870.912C1595.61 870.096 1596.15 861.664 1596.15 856.224V816.24L1600.5 800.736L1599.14 799.648L1530.05 873.088V872.544C1524.61 872.544 1519.17 871.456 1518.63 871.184C1518.9 870.368 1519.45 861.664 1519.45 856.224ZM1644.69 798.56L1644.42 778.976C1644.42 773.536 1643.88 764.832 1643.6 764.016C1644.42 763.744 1649.86 762.656 1655.3 762.656C1660.74 762.656 1666.18 763.744 1667 764.016C1666.72 764.832 1666.18 773.536 1666.18 778.976V790.944C1666.18 810.256 1676.79 820.32 1696.1 820.32C1703.72 820.32 1712.96 818.96 1720.58 817.328V778.976C1720.58 773.536 1719.76 764.832 1719.49 764.016C1720.31 763.744 1726.02 762.656 1731.46 762.656C1736.9 762.656 1742.61 763.744 1743.43 764.016C1743.16 764.832 1742.34 773.536 1742.34 778.976V856.224C1742.34 861.664 1743.16 870.096 1743.43 870.912C1742.61 871.184 1736.9 872.544 1731.46 872.544C1726.02 872.544 1720.31 871.184 1719.49 870.912C1719.76 870.096 1720.58 861.664 1720.58 856.224V843.168L1732.82 836.096C1717.86 836.912 1701.54 839.36 1690.93 839.36C1660.74 839.36 1644.69 825.216 1644.69 798.56ZM1767.08 817.6C1767.35 783.056 1786.12 761.84 1821.21 761.84C1856.3 761.84 1875.07 783.056 1875.34 817.6V817.872L1865.55 825.76L1789.39 825.216C1792.65 842.352 1807.61 854.864 1823.93 854.864C1833.72 854.864 1845.69 850.24 1854.39 846.432C1855.48 845.888 1856.57 845.888 1857.39 845.888C1859.83 845.888 1861.47 847.792 1862.83 852.416L1866.63 864.928C1862.55 866.56 1843.79 873.36 1819.31 873.36C1787.75 873.36 1767.08 849.152 1767.08 817.6ZM1790.47 805.36L1781.5 810.256L1853.85 808.624C1852.22 791.76 1838.89 779.52 1821.48 779.52C1806.79 779.52 1793.74 789.856 1790.47 805.36ZM1892.19 817.6C1892.46 786.32 1910.14 761.84 1941.7 761.84C1956.38 761.84 1971.34 764.832 1978.96 767.008C1981.41 767.552 1982.22 769.456 1982.22 771.632C1982.22 772.992 1981.95 774.624 1981.41 775.984L1977.33 789.312C1968.62 785.776 1956.93 780.88 1946.05 780.88C1927.55 780.88 1915.31 796.656 1915.04 817.6C1915.04 838.816 1927.55 854.32 1946.05 854.32C1956.93 854.32 1968.62 849.696 1977.33 846.16L1981.41 859.488C1981.95 860.848 1982.22 862.48 1982.22 863.84C1982.22 866.016 1981.41 867.92 1978.96 868.464C1971.34 870.64 1956.38 873.36 1941.7 873.36C1910.14 873.36 1892.19 849.152 1892.19 817.6ZM2009.26 856.224L2008.99 778.976C2008.99 773.808 2008.44 765.104 2008.17 764.288C2008.99 764.016 2014.43 762.656 2019.87 762.656C2025.31 762.656 2030.75 764.016 2031.56 764.288C2031.29 765.104 2030.75 773.536 2030.75 778.976V808.08H2048.15L2075.35 767.552C2078.35 763.2 2085.69 761.84 2093.03 761.84C2098.2 761.84 2104.19 762.112 2106.09 765.376C2105.27 766.192 2099.02 771.904 2095.75 776.256L2067.19 817.328L2102.83 859.488C2106.36 863.568 2111.26 869.28 2112.07 870.096C2110.17 873.36 2104.46 873.36 2099.29 873.36C2091.95 873.36 2084.6 872 2081.34 868.192L2047.07 825.216H2024.49L2031.02 830.112V856.224C2031.02 861.664 2031.56 870.368 2031.83 871.184C2031.02 871.456 2025.58 872.544 2020.14 872.544C2014.7 872.544 2009.26 871.456 2008.44 871.184C2008.71 870.368 2009.26 861.664 2009.26 856.224ZM2140.56 817.6C2140.56 839.632 2153.07 854.32 2171.84 854.32C2190.61 854.32 2203.12 839.632 2203.12 817.6C2203.12 795.568 2190.61 780.88 2171.84 780.88C2153.07 780.88 2140.56 795.568 2140.56 817.6ZM2117.44 817.6C2117.44 784.144 2139.2 761.84 2171.84 761.84C2204.48 761.84 2226.24 784.144 2226.24 817.6C2226.24 851.056 2204.48 873.36 2171.84 873.36C2139.2 873.36 2117.44 851.056 2117.44 817.6ZM2250.44 856.224V780.608C2250.44 775.168 2249.89 768.368 2249.62 765.92L2250.17 765.648C2267.3 765.648 2296.95 763.472 2310.01 763.472H2326.33V790.128L2325.78 790.672C2319.8 786.864 2310.82 784.96 2301.03 784.96C2290.69 784.96 2274.1 786.32 2266.76 788.768L2272.74 792.032V856.224C2272.74 861.664 2273.29 870.368 2273.56 871.184C2272.74 871.456 2267.03 872.544 2261.59 872.544C2256.15 872.544 2250.44 871.456 2249.62 871.184C2249.89 870.368 2250.44 861.664 2250.44 856.224ZM2363.69 817.6C2363.69 839.632 2376.2 854.32 2394.97 854.32C2413.73 854.32 2426.25 839.632 2426.25 817.6C2426.25 795.568 2413.73 780.88 2394.97 780.88C2376.2 780.88 2363.69 795.568 2363.69 817.6ZM2340.57 817.6C2340.57 784.144 2362.33 761.84 2394.97 761.84C2427.61 761.84 2449.37 784.144 2449.37 817.6C2449.37 851.056 2427.61 873.36 2394.97 873.36C2362.33 873.36 2340.57 851.056 2340.57 817.6ZM684.32 1153.22V1021.58C684.32 1016.41 683.776 1007.7 683.504 1006.89C684.32 1006.62 690.032 1005.26 695.472 1005.26C712.608 1005.26 717.232 1005.8 733.824 1005.8H743.616C759.936 1005.8 764.288 1005.26 781.968 1005.26C787.408 1005.26 793.12 1006.34 793.936 1006.62C793.664 1007.43 793.12 1016.14 793.12 1021.58V1153.22C793.12 1158.66 793.664 1167.1 793.936 1167.91C793.12 1168.18 787.408 1169.54 781.968 1169.54C776.528 1169.54 770.816 1168.18 770 1167.91C770.272 1167.1 770.816 1158.66 770.816 1153.22V1026.2H711.792L694.384 1024.84V1025.38L706.624 1030.28V1153.22C706.624 1158.66 707.168 1167.37 707.44 1168.18C706.624 1168.46 700.912 1169.54 695.472 1169.54C690.032 1169.54 684.32 1168.46 683.504 1168.18C683.776 1167.37 684.32 1158.66 684.32 1153.22ZM825.633 1153.22V1075.98C825.633 1070.54 824.817 1062.1 824.545 1061.29C825.361 1061.02 830.801 1059.66 836.241 1059.66C841.681 1059.66 847.121 1061.02 847.937 1061.29C847.665 1062.1 846.849 1070.81 846.849 1075.98V1129.02L912.673 1059.66C918.113 1059.66 923.553 1060.74 924.369 1061.02C924.097 1061.83 923.553 1070.54 923.553 1075.98V1153.22C923.553 1158.66 924.097 1167.1 924.369 1167.91C923.553 1168.18 918.385 1169.54 912.945 1169.54C907.505 1169.54 902.337 1168.18 901.521 1167.91C901.793 1167.1 902.337 1158.66 902.337 1153.22V1113.24L906.689 1097.74L905.329 1096.65L836.241 1170.09V1169.54C830.801 1169.54 825.361 1168.46 824.817 1168.18C825.089 1167.37 825.633 1158.66 825.633 1153.22ZM948.16 1114.6C948.432 1083.32 966.112 1058.84 997.664 1058.84C1012.35 1058.84 1027.31 1061.83 1034.93 1064.01C1037.38 1064.55 1038.19 1066.46 1038.19 1068.63C1038.19 1069.99 1037.92 1071.62 1037.38 1072.98L1033.3 1086.31C1024.59 1082.78 1012.9 1077.88 1002.02 1077.88C983.52 1077.88 971.28 1093.66 971.008 1114.6C971.008 1135.82 983.52 1151.32 1002.02 1151.32C1012.9 1151.32 1024.59 1146.7 1033.3 1143.16L1037.38 1156.49C1037.92 1157.85 1038.19 1159.48 1038.19 1160.84C1038.19 1163.02 1037.38 1164.92 1034.93 1165.46C1027.31 1167.64 1012.35 1170.36 997.664 1170.36C966.112 1170.36 948.16 1146.15 948.16 1114.6ZM1086.99 1148.06C1094.87 1149.69 1100.86 1150.78 1108.75 1150.78C1128.87 1150.78 1140.03 1145.61 1140.03 1133.1C1140.03 1121.13 1129.96 1115.96 1111.47 1115.96H1086.99V1148.06ZM1065.23 1152.68V1075.98C1065.23 1070.81 1064.68 1062.1 1064.41 1061.29C1065.23 1061.02 1070.67 1059.66 1076.11 1059.66C1081.55 1059.66 1086.99 1061.02 1087.8 1061.29C1087.53 1062.1 1086.99 1070.54 1086.99 1075.98V1091.21L1076.38 1096.92H1108.75C1144.11 1096.92 1163.15 1108.89 1163.15 1133.1C1163.15 1157.85 1146.01 1169.82 1114.19 1169.82C1101.4 1169.82 1082.63 1167.64 1065.5 1167.64L1064.41 1167.37C1064.68 1166.55 1065.23 1158.12 1065.23 1152.68ZM1187.68 1153.22V1080.6C1187.68 1075.16 1186.86 1060.2 1186.86 1060.2H1216.24C1237.18 1060.2 1255.14 1073.26 1263.84 1092.02C1272.27 1073.26 1290.22 1060.2 1311.44 1060.2H1340.82C1340.82 1060.2 1340 1075.16 1340 1080.6V1153.22C1340 1158.66 1340.54 1167.37 1340.82 1168.18C1340 1168.46 1334.56 1169.54 1329.12 1169.54C1323.68 1169.54 1318.24 1168.46 1317.42 1168.18C1317.7 1167.37 1318.24 1158.66 1318.24 1153.22V1080.6H1314.16C1293.22 1080.6 1274.72 1102.09 1274.72 1126.3V1153.22C1274.72 1158.66 1275.26 1167.37 1275.54 1168.18C1274.72 1168.46 1269.28 1169.54 1263.84 1169.54C1258.4 1169.54 1252.96 1168.46 1252.14 1168.18C1252.42 1167.37 1252.96 1158.66 1252.96 1153.22V1126.3C1252.96 1102.09 1234.19 1080.6 1213.52 1080.6H1199.92L1209.44 1085.22V1153.22C1209.44 1158.66 1209.98 1167.37 1210.26 1168.18C1209.44 1168.46 1204 1169.54 1198.56 1169.54C1193.12 1169.54 1187.68 1168.46 1186.86 1168.18C1187.14 1167.37 1187.68 1158.66 1187.68 1153.22ZM1364.39 1139.08C1364.39 1117.05 1377.72 1105.9 1402.47 1105.9L1443.27 1106.71V1104.26C1443.27 1083.59 1428.04 1077.88 1409.55 1077.88C1398.67 1077.88 1386.97 1082.78 1378.54 1086.31L1372.28 1065.37C1376.36 1063.74 1395.13 1058.84 1414.17 1058.84C1445.45 1058.84 1464.76 1072.44 1465.03 1103.72V1153.22C1465.03 1158.66 1465.31 1165.46 1465.85 1167.91H1463.95C1446.27 1167.91 1414.99 1170.36 1402.47 1170.36C1377.72 1170.36 1364.39 1160.3 1364.39 1139.08ZM1387.51 1139.08C1387.51 1147.24 1394.59 1151.32 1407.91 1151.32C1415.8 1151.32 1431.85 1150.23 1443.27 1148.06V1127.38L1453.88 1123.03C1438.38 1123.03 1422.87 1123.03 1407.37 1122.76C1394.04 1122.76 1387.51 1130.38 1387.51 1139.08Z" fill="black"/>
</svg>
